<svg width="651" height="643" viewBox="0 0 651 643" fill="none" xmlns="http://www.w3.org/2000/svg">
<path opacity="0.4" d="M629.964 517.663L492.272 604.494C485.229 608.935 477.298 611.779 469.038 612.824C460.778 613.868 452.389 613.09 444.463 610.542L293.532 562.026C285.555 559.462 277.111 558.69 268.801 559.764C260.492 560.839 252.522 563.733 245.46 568.241L134.96 638.778C131.569 640.92 127.727 642.242 123.736 642.64C119.746 643.038 115.718 642.501 111.971 641.071C108.225 639.641 104.863 637.357 102.154 634.401C99.4435 631.445 97.4598 627.898 96.3595 624.042L0.989521 289.702C-0.539446 284.341 -0.29119 278.629 1.69712 273.42C3.68542 268.212 7.30687 263.787 12.0195 260.809L151.18 172.86C158.895 167.984 167.586 164.861 176.64 163.711C185.694 162.561 194.89 163.412 203.58 166.205L349.695 213.173C358.415 215.976 367.646 216.824 376.731 215.656C385.816 214.488 394.533 211.333 402.261 206.415L506.899 139.826C510.288 137.669 514.134 136.334 518.13 135.926C522.127 135.517 526.163 136.048 529.919 137.475C533.674 138.901 537.045 141.185 539.762 144.144C542.479 147.103 544.467 150.656 545.57 154.519L640.925 488.813C642.45 494.161 642.207 499.858 640.232 505.057C638.257 510.256 634.655 514.677 629.964 517.663Z" fill="#CCCDCF"/>
<path d="M635.34 482.18L517.762 557.002C510.034 561.92 501.317 565.075 492.232 566.243C483.147 567.411 473.916 566.563 465.196 563.76L319.071 516.792C310.381 513.999 301.185 513.148 292.131 514.298C283.077 515.447 274.386 518.57 266.671 523.446L140.332 603.295C136.941 605.437 133.099 606.759 129.108 607.157C125.118 607.555 121.09 607.018 117.343 605.588C113.597 604.158 110.235 601.874 107.525 598.918C104.816 595.962 102.832 592.415 101.732 588.559L6.36252 254.219C4.8333 248.858 5.08131 243.146 7.06945 237.937C9.05759 232.729 12.6789 228.304 17.3915 225.326L156.545 137.373C164.26 132.497 172.951 129.374 182.005 128.225C191.059 127.075 200.255 127.926 208.945 130.719L355.069 177.688C363.789 180.491 373.02 181.339 382.105 180.17C391.19 179.002 399.907 175.847 407.635 170.929L512.273 104.341C515.662 102.184 519.508 100.849 523.504 100.441C527.501 100.032 531.537 100.563 535.293 101.99C539.048 103.416 542.418 105.7 545.136 108.659C547.853 111.618 549.841 115.171 550.944 119.034L646.299 453.326C647.825 458.674 647.583 464.372 645.608 469.572C643.633 474.771 640.032 479.194 635.34 482.18Z" fill="white"/>
<path d="M305.045 478.999L283.182 417.313L179.863 452.684L147.556 359.078L63.4045 375.826L122.405 582.66C122.665 583.567 123.215 584.364 123.97 584.93C124.725 585.497 125.645 585.801 126.589 585.797C127.389 585.794 128.171 585.557 128.84 585.116L248.954 509.203C248.432 508.592 305.045 478.999 305.045 478.999Z" fill="#EAF4F7"/>
<path d="M635.34 482.18L517.762 557.002C510.034 561.92 501.317 565.075 492.232 566.243C483.147 567.411 473.916 566.563 465.196 563.76L319.071 516.792C310.381 513.999 301.185 513.148 292.131 514.298C283.077 515.447 274.386 518.57 266.671 523.446L140.332 603.295C136.941 605.437 133.099 606.759 129.108 607.157C125.118 607.555 121.09 607.018 117.343 605.588C113.597 604.158 110.235 601.874 107.525 598.918C104.816 595.962 102.832 592.415 101.732 588.559L6.36252 254.219C4.8333 248.858 5.08131 243.146 7.06945 237.937C9.05759 232.729 12.6789 228.304 17.3915 225.326L156.545 137.373C164.26 132.497 172.951 129.374 182.005 128.225C191.059 127.075 200.255 127.926 208.945 130.719L355.069 177.688C363.789 180.491 373.02 181.339 382.105 180.17C391.19 179.002 399.907 175.847 407.635 170.929L512.273 104.341C515.662 102.184 519.508 100.849 523.504 100.441C527.501 100.032 531.537 100.563 535.293 101.99C539.048 103.416 542.418 105.7 545.136 108.659C547.853 111.618 549.841 115.171 550.944 119.034L646.299 453.326C647.825 458.674 647.583 464.372 645.608 469.572C643.633 474.771 640.032 479.194 635.34 482.18Z" stroke="#363A5A" stroke-width="6" stroke-miterlimit="10"/>
<path d="M196.598 440.648C196.598 440.648 198.39 440.181 201.41 439.299" stroke="#363A5A" stroke-width="4" stroke-linecap="round" stroke-linejoin="round"/>
<path d="M215.948 434.645C237.182 427.258 268.342 413.702 268.716 397.67C269.216 376.37 165.984 269.804 221.483 263.362C406.771 241.856 323.75 395.962 408.255 392.518C443.955 391.063 377.934 341.979 479.937 306.5C495.058 301.24 487.546 262.784 482.473 242.678" stroke="#363A5A" stroke-width="4" stroke-linecap="round" stroke-linejoin="round" stroke-dasharray="10.18 15.26"/>
<path d="M480.51 235.299C479.666 232.282 479.11 230.499 479.11 230.499" stroke="#363A5A" stroke-width="4" stroke-linecap="round" stroke-linejoin="round"/>
<path opacity="0.22" d="M190.144 491.443C216.759 491.443 238.336 469.867 238.336 443.251C238.336 416.635 216.759 395.059 190.144 395.059C163.528 395.059 141.952 416.635 141.952 443.251C141.952 469.867 163.528 491.443 190.144 491.443Z" fill="#3DC0CB"/>
<path d="M190.144 471.197C205.578 471.197 218.09 458.685 218.09 443.251C218.09 427.817 205.578 415.305 190.144 415.305C174.709 415.305 162.198 427.817 162.198 443.251C162.198 458.685 174.709 471.197 190.144 471.197Z" fill="#007DC6"/>
<path d="M190.143 415.305C185.859 415.302 181.632 416.286 177.789 418.181C173.947 420.075 170.592 422.829 167.985 426.229C173.479 422.495 180.124 420.84 186.727 421.561C193.331 422.283 199.461 425.333 204.019 430.166C208.577 434.998 211.265 441.296 211.599 447.931C211.934 454.565 209.894 461.102 205.845 466.368C210.79 463.01 214.527 458.154 216.508 452.516C218.49 446.877 218.611 440.751 216.854 435.038C215.098 429.325 211.556 424.326 206.749 420.774C201.942 417.223 196.122 415.306 190.145 415.305H190.143Z" fill="#64C7CF"/>
<path d="M190.144 471.197C205.578 471.197 218.09 458.685 218.09 443.251C218.09 427.817 205.578 415.305 190.144 415.305C174.709 415.305 162.198 427.817 162.198 443.251C162.198 458.685 174.709 471.197 190.144 471.197Z" stroke="#363A5A" stroke-width="6" stroke-miterlimit="10"/>
<path d="M202.879 193.913L283.032 209.106L264.625 176.754L198.286 153.609C194.449 152.271 190.386 151.701 186.329 151.933C182.272 152.165 178.3 153.194 174.641 154.961L28.8735 243.504C28.0907 244.003 27.4893 244.741 27.1581 245.608C26.8269 246.475 26.7836 247.426 27.0345 248.32L50.5425 330.732L114.632 314.885L102.862 267.673L202.879 193.913Z" fill="#87D5F7" stroke="#259AD6" stroke-width="4" stroke-linecap="round" stroke-linejoin="round"/>
<path d="M329.901 398.002L375.641 409.518L397.753 460.199L348.48 452.122L329.901 398.002Z" fill="#FDDCBF" stroke="#ECB072" stroke-width="4" stroke-linecap="round" stroke-linejoin="round"/>
<path d="M479.957 246.183C442.8 246.183 412.679 235.407 412.679 222.114C412.679 208.821 442.8 198.044 479.957 198.044C517.114 198.044 547.234 208.821 547.234 222.114C547.234 235.407 517.113 246.183 479.957 246.183Z" fill="#EAF4F7"/>
<path d="M501.07 382.559L584.997 346.025L618.151 447.034L482.25 524.266L457.339 453.966L510.479 424.075L501.07 382.559Z" fill="#FDDCBF" stroke="#ECB072" stroke-width="4" stroke-linecap="round" stroke-linejoin="round"/>
<path d="M579.013 104.754C579.013 46.954 532.098 0.409986 475.251 3.11199C424.351 5.53199 380.959 48.894 380.959 101.236C380.959 176.953 479.959 235.336 479.959 235.336C479.959 235.336 579.013 176.953 579.013 104.754Z" fill="#7CFB59"/>
<path d="M516.117 206.037C508.31 212.127 498.685 215.419 488.784 215.385C478.883 215.351 469.281 211.993 461.516 205.849C432.216 182.649 389.839 140.526 389.839 90.989C389.912 69.9562 396.87 49.5256 409.648 32.819C392.075 50.565 380.958 74.749 380.958 101.236C380.958 176.953 479.958 235.336 479.958 235.336C479.958 235.336 520.332 211.536 549.529 175.536C539.224 186.579 528.05 196.778 516.117 206.037Z" fill="#82CB6E"/>
<path d="M475.252 3.11199C457.404 4.03152 440.149 9.81445 425.352 19.835C437.004 14.2158 449.665 10.9906 462.586 10.35C519.433 7.64998 566.348 54.191 566.348 111.992C566.348 168.602 505.454 216.716 479.156 234.855C479.671 235.169 479.956 235.339 479.956 235.339C479.956 235.339 579.011 176.953 579.011 104.754C579.013 46.954 532.099 0.409986 475.252 3.11199Z" fill="#49B32D"/>
<path d="M479.958 143.678C471.897 143.678 464.017 141.288 457.314 136.81C450.612 132.332 445.388 125.967 442.303 118.519C439.218 111.072 438.411 102.877 439.983 94.9715C441.556 87.0656 445.437 79.8034 451.137 74.1035C456.837 68.4036 464.099 64.5219 472.005 62.9492C479.911 61.3765 488.106 62.1836 495.553 65.2683C503 68.353 509.365 73.5768 513.844 80.2791C518.322 86.9814 520.713 94.8612 520.713 102.922C520.713 113.731 516.419 124.097 508.776 131.74C501.133 139.384 490.766 143.678 479.958 143.678Z" fill="white"/>
<path d="M479.958 143.678C471.897 143.678 464.017 141.288 457.314 136.81C450.612 132.332 445.388 125.967 442.303 118.519C439.218 111.072 438.411 102.877 439.983 94.9715C441.556 87.0656 445.437 79.8034 451.137 74.1035C456.837 68.4036 464.099 64.5219 472.005 62.9492C479.911 61.3765 488.106 62.1836 495.553 65.2683C503 68.353 509.365 73.5768 513.844 80.2791C518.322 86.9814 520.713 94.8612 520.713 102.922C520.713 113.731 516.419 124.097 508.776 131.74C501.133 139.384 490.766 143.678 479.958 143.678Z" stroke="#363A5A" stroke-width="6" stroke-miterlimit="10"/>
<path d="M579.013 104.754C579.013 46.954 532.098 0.409986 475.251 3.11199C424.351 5.53199 380.959 48.894 380.959 101.236C380.959 176.953 479.959 235.336 479.959 235.336C479.959 235.336 579.013 176.953 579.013 104.754Z" stroke="#363A5A" stroke-width="6" stroke-linecap="round" stroke-linejoin="round"/>
</svg>
