<svg
    data-name="Layer 1" 
    version="1.1" id="Layer_1" 
    xmlns="http://www.w3.org/2000/svg"
    xmlns:xlink="http://www.w3.org/1999/xlink" 
    x="0px" y="0px" 
    width="100%" 
    viewBox="0 0 512 512"
    enable-background="new 0 0 512 512"
    xml:space="preserve"
>
    <defs>
        <style>
            circle {
                fill: #FF0000;
                stroke: #FF0000;
                stroke-width: 1px;
                stroke-opacity: 1;
            }
            .pulse {
                fill: #7F40E2;
                fill-opacity: 0;
                transform-origin: 50% 50%;
                animation-duration: 1s;
                animation-name: pulse;
                animation-iteration-count: infinite;
            }
            @keyframes pulse {
                from {
                    stroke-width: 100px;
                    stroke-opacity: 1;
                    transform: scale(1);
                }
                to {
                    stroke-width: 0px;
                    stroke-opacity: 0;
                    transform: scale(0);
                }
            }
        </style>
    </defs>

    <g transform="scale(0.5)" transform-origin="center center">
        <path fill="#FE0000" opacity="1.000000" stroke="none"
            d="M331.138489,485.170380 
            C250.145416,509.565369 175.935226,496.607788 109.123215,445.520142 
            C66.476768,412.910645 37.779228,369.934570 25.110439,317.745636 
            C3.111291,227.120361 25.959843,148.299667 92.387192,82.930481 
            C128.717148,47.179241 173.176651,26.235426 223.618668,19.406723 
            C289.769348,10.451427 350.048096,26.208099 403.041656,66.914726 
            C452.685974,105.048676 483.303009,155.518860 493.544586,217.264511 
            C504.847687,285.409973 489.098145,347.610474 447.354218,402.702606 
            C417.465515,442.148682 378.550934,469.448486 331.138489,485.170380 z"
        />

        <path fill="#FFFFFF" opacity="1.000000" stroke="none"
            d="M130.000946,257.000000 
            C130.000961,226.836716 129.993713,197.173416 130.003326,167.510132 
            C130.010818,144.379288 144.276169,130.008835 167.260483,130.004639 
            C227.087006,129.993698 286.913513,129.993607 346.740051,130.004684 
            C369.710907,130.008942 383.993195,144.391754 383.996307,167.508331 
            C384.004333,227.168198 384.004395,286.828064 383.996338,346.487946 
            C383.993195,369.795044 369.695038,383.995239 346.241608,383.997345 
            C286.748383,384.002625 227.255142,384.002686 167.761917,383.997345 
            C144.090714,383.995209 130.005630,369.812744 130.002029,345.989838 
            C129.997574,316.493225 130.000946,286.996613 130.000946,257.000000 z"
        />
    </g>
        <circle class="pulse" cx="50%" cy="50%" r="100%"></circle>
</svg>
